<svg width="22" height="13" viewBox="0 0 22 13" fill="none" xmlns="http://www.w3.org/2000/svg">
<path d="M13.658 12.782L15.589 12.264L14.802 9.32499C15.98 8.89051 17.0749 8.25735 18.039 7.45299L20.192 9.60699L21.607 8.19199L19.453 6.03898C20.6689 4.58274 21.4859 2.83575 21.824 0.968985L19.856 0.609985C19.097 4.81199 15.421 7.99999 11 7.99999C6.57997 7.99999 2.90298 4.81199 2.14397 0.609985L0.175976 0.967985C0.513607 2.835 1.33026 4.58235 2.54597 6.03898L0.392975 8.19199L1.80798 9.60699L3.96098 7.45299C4.92509 8.25735 6.01994 8.89051 7.19797 9.32499L6.41097 12.265L8.34197 12.782L9.12997 9.84199C10.3676 10.0541 11.6323 10.0541 12.87 9.84199L13.658 12.782Z" fill="#222222"/>
</svg>
